<svg xmlns="http://www.w3.org/2000/svg" xmlns:v="https://vecta.io/nano" viewBox="0 0 48 48" fill="#fff"><path d="M34.4 6.1l1.5-.3.1-.1V4.1l-1.5.3c-.1 0-.1.1-.1.1v1.6zM36 44v-1.6s-.1-.1-.2-.1c-.3-.1-.6-.1-.9-.2-.2 0-.3-.1-.5-.1v1.5c0 .1.1.1.1.2l1.5.3zM34 6.1V4.4c-.4.1-.7.1-1.1.2-.6.1-.6.1-.6.7v1.1l1.7-.3z"></path><path d="M32.4 41.6v1.5l.1.1 1.5.3v-1.7c-.5 0-1.1-.1-1.6-.2zm-2-34.8c.5-.1 1-.2 1.5-.2.1 0 .1-.1.1-.1V5l-1.5.3-.1.1v1.4zM30 41.2c-.5-.1-1.1-.2-1.6-.2v1.6l1.6.3v-1.7zM24.3 7.5c.5-.1 1-.1 1.5-.2l.1-.1V5.7l-1.6.2v1.6zM23.9 42v-1c0-.5 0-.5-.5-.6-.4 0-.7-.1-1.1-.1v1.5c.5.1 1 .1 1.6.2z"></path><path d="M23.9 6c-.6 0-1.1.1-1.6.1v1.5c.5 0 1.1-.1 1.6-.1V6zm2.4 36.2c.5.1 1.1.1 1.6.2v-1.6c-.5-.1-1.1-.1-1.6-.2v1.6zM28 5.6c-.5.1-1.1.1-1.6.2v1.6c.5-.1 1.1-.1 1.6-.2V5.6zm-7.8.7v1.5c.6 0 1.1-.1 1.6-.1V6.2c-.5 0-1 .1-1.6.1zm1.7 34c-.6 0-1.1-.1-1.6-.1v1.4s.1.1.2.1h.7.8c-.1-.4-.1-.9-.1-1.4zm-5.7 1.3h1.6v-1.5h-1.6v1.5zm2 0h1.6v-1.5h-1.6v1.5zm-.4-33.7V6.4h-1.6v1.5h1.6zm-3.7 0h1.6V6.4h-1.6v1.5zM36 8l-1.6.3v1.5l1.6-.3V8zm-1.6 30.2v.8c0 .2-.1.5 0 .7.1.1.4.1.6.2.3.1.6.1.9.2v-1.5c-.4-.2-.9-.3-1.5-.4zm3.6.6l-1.6-.3V40l1.6.3v-1.5zM36.4 9.4c.6-.1 1.1-.2 1.6-.2V7.6l-1.6.3v1.5zM38 5.6l-1.5.3-.1.1v1.4c.6 0 1.1-.1 1.6-.2V5.6zm-5.6 4.5c.5-.1 1.1-.2 1.6-.2V8.4l-1.6.3v1.4zM34 39.6v-1.5c-.5-.1-1.1-.2-1.6-.2v1.5c.5 0 1 .1 1.6.2z"></path><path d="M34 41.5V40l-1.6-.3v1.5l1.6.3zm0-35l-1.5.3c-.1 0-.1.1-.1.1v1.4L34 8V6.5zm-8.1 33.8v-1.4c-.5 0-1.1-.1-1.6-.1v1.4c.6 0 1.1 0 1.6.1zm-1.6-1.9c.6 0 1.1.1 1.6.1v-.1-.8c0-.5 0-.5-.5-.5h-.1c-.3 0-.7 0-1-.1v1.4zM8 11.3v1.4c.5 0 1.1.1 1.6.1v-1.4c-.5 0-1 0-1.6-.1zm0 27.1c.5 0 1.1-.1 1.6-.1v-1.4c-.5 0-1 .1-1.6.1v1.4zm0-23.6V16l.1.1h1.5v-1.3H8zm0 3.1h1.6v-1.3H8v1.3zm1.6 17.3c-.6 0-1.1.1-1.6.1v1.4c.5 0 1.1-.1 1.6-.1v-1.4zm0-15.3H8v1.3h1.6v-1.3zm0 6.9H8v1.3h1.6v-1.3zm-1.6 3h1.6v-1.3H8v1.3zm9.8-19.9h-1.6v1.3h1.6V9.9zm-2.1 0h-1.6v1.3h1.6V9.9zm-1.6 9.7h1.6v-1.3h-1.6v1.3zm0 10.1h1.6v-1.3h-1.6v1.3zm-.4-8h-1.6V23h1.6v-1.3zm.4 0V23h1.6v-1.3h-1.6zm-4.1-.4h1.6V20H10v1.3zm3.7 3.7h-1.6v1.3h1.6V25zm2 0h-1.6v1.3h1.6V25zm-4.1 1.7H10V28h1.6v-1.3zm0-2v-1.3H10v1.3h1.6zm-1.6 5h1.6v-1.3H10v1.3zm0 8.5c.5 0 1.1 0 1.6-.1v-1.3c-.5 0-1.1 0-1.6.1v1.3zm3.7-4.8h-1.6v1.3h1.6v-1.3zM10 12.8h1.6v-1.3H10v1.3zm2.1 18.6h1.6v-1.3h-1.6v1.3zm-.5.4H10v1.3h1.6v-1.3zm4.6 6.3h1.6v-1.3h-1.6v1.3zm-2.1-1.3v1.3h1.6v-1.3h-1.6zm-2.5-2v-1.3H10v1.3h1.6zm.5-19.9v1.3h1.6v-1.3h-1.6zm-2.1-.4h1.6v-1.3H10v1.3zm1.6 5.1v-1.3H10v1.3h1.6zm2.1 7.1h-1.6V28h1.6v-1.3zm-1.6-15.1v1.3h1.6v-1.3h-1.6zm-2 18.5v1.3h1.6v-1.3h-1.6zm2 8h1.6v-1.3h-1.6v1.3zm1.6.4h-1.6v1.3h1.6v-1.3zm-1.6-2.1h1.6v-1.3h-1.6v1.3zm3.6-19.8h-1.6v1.3h1.6v-1.3zm-2 1.3v-1.3h-1.6v1.3h1.6zm.4 5.4v1.3h1.6v-1.3h-1.6zm2.1 15.1v1.3h1.6v-1.3h-1.6zm0-28.8h1.6V8.3h-1.6v1.3zm-2.5 11.7V20h-1.6v1.3h1.6zm.4 8.7v1.3h1.6V30h-1.6zM34.4 6.1V4.5c0-.1.1-.1.1-.1.5-.2 1-.3 1.5-.4v1.6l-.1.1c-.5.1-1 .2-1.5.4zM36 44c-.5-.1-1-.2-1.5-.4 0 0-.1-.1-.1-.2v-1.5c.2 0 .4.1.5.1.3.1.6.1.9.2.1 0 .1.1.2.1V44zM34 6.1l-1.6.3V5.3c0-.6 0-.6.6-.7.3-.1.7-.1 1.1-.2-.1.6-.1 1.2-.1 1.7zm-1.6 35.5l1.6.3v1.7l-1.5-.3-.1-.1v-1.6z"></path><path d="M30.4 6.8V5.3s0-.1.1-.1l1.5-.3v1.5l-.1.1-1.5.3zM30 41.2v1.6l-1.6-.3v-1.6l1.6.3zM24.3 7.5V6c.5-.1 1.1-.1 1.6-.2v1.5l-.1.1c-.5 0-1 .1-1.5.1zM23.9 42c-.6 0-1.1-.1-1.6-.1v-1.5c.4 0 .7.1 1.1.1.5 0 .5.1.5.6v.9z"></path><path d="M23.9 6v1.5c-.5 0-1.1.1-1.6.1V6.1c.5 0 1 0 1.6-.1zm2.4 36.2v-1.6c.5.1 1.1.1 1.6.2v1.6c-.5 0-1-.1-1.6-.2zM28 5.6v1.6c-.5.1-1.1.1-1.6.2V5.8c.5-.1 1-.2 1.6-.2zm-7.8.7c.5 0 1.1-.1 1.6-.1v1.5c-.5 0-1.1.1-1.6.1V6.3zm1.7 34v1.5h-.8-.7c-.1 0-.2-.1-.2-.1v-1.4c.6-.1 1.1-.1 1.7 0zm-5.7 1.3v-1.5h1.6v1.5h-1.6zm2 0v-1.5h1.6v1.5h-1.6zm-.4-33.7h-1.6V6.4h1.6v1.5zm-3.7 0V6.4h1.6v1.5h-1.6zM36 8v1.5l-1.6.3V8.3L36 8zm-1.6 30.2l1.6.3V40c-.3-.1-.6-.1-.9-.2-.2 0-.5 0-.6-.2-.1-.1 0-.4 0-.7-.1-.2-.1-.4-.1-.7zm3.6.6v1.6l-1.6-.3v-1.5l1.6.2zM36.4 9.4V7.9l1.6-.3v1.6c-.5 0-1 .1-1.6.2zM38 5.6v1.6l-1.6.3V6.1l.1-.1c.5-.1 1-.2 1.5-.4zm-5.6 4.5V8.6l1.6-.3v1.5l-1.6.3zM34 39.6l-1.6-.3v-1.5c.5.1 1.1.2 1.6.2v1.6zm0 1.9l-1.6-.3v-1.5l1.6.3v1.5zm0-35V8l-1.6.3V6.9l.1-.1 1.5-.3zm-8.1 33.8c-.5-.1-1.1-.1-1.6-.2v-1.4c.5 0 1.1.1 1.6.1v1.5zm-1.6-1.9V37c.4 0 .7 0 1 .1h.1c.5 0 .5 0 .5.5v.8.1c-.5 0-1-.1-1.6-.1zM8 11.3c.5 0 1.1.1 1.6.1v1.4c-.5 0-1.1-.1-1.6-.1v-1.4zm0 27.1V37c.5 0 1.1-.1 1.6-.1v1.4c-.5 0-1 0-1.6.1zm0-23.6h1.6v1.3H8.1L8 16v-1.2zm0 3.1v-1.3h1.6v1.3H8zm1.6 17.3v1.4c-.5 0-1.1.1-1.6.1v-1.4c.5 0 1.1-.1 1.6-.1zm0-15.3v1.3H8v-1.3h1.6zm0 6.9v1.3H8v-1.3h1.6zm-1.6 3v-1.3h1.6v1.3H8zm9.8-19.9v1.3h-1.6V9.9h1.6zm-2.1 0v1.3h-1.6V9.9h1.6zm-1.6 9.7v-1.3h1.6v1.3h-1.6zm0 10.1v-1.3h1.6v1.3h-1.6zm-.4-8V23h-1.6v-1.3h1.6zm.4 0h1.6V23h-1.6v-1.3zm-4.1-.4V20h1.6v1.3H10zm3.7 3.7v1.3h-1.6V25h1.6zm2 0v1.3h-1.6V25h1.6zm-4.1 1.7V28H10v-1.3h1.6zm0-2H10v-1.3h1.6v1.3zm-1.6 5v-1.3h1.6v1.3H10zm0 8.5v-1.3c.5 0 1.1 0 1.6-.1v1.3c-.5.1-1 .1-1.6.1zm3.7-4.8v1.3h-1.6v-1.3h1.6zM10 12.8v-1.3h1.6v1.3H10zm2.1 18.6v-1.3h1.6v1.3h-1.6zm-.5.4v1.3H10v-1.3h1.6zm4.6 6.3v-1.3h1.6v1.3h-1.6zm-2.1-1.3h1.6v1.3h-1.6v-1.3zm-2.5-2H10v-1.3h1.6v1.3zm.5-19.9h1.6v1.3h-1.6v-1.3zm-2.1-.4v-1.3h1.6v1.3H10zm1.6 5.1H10v-1.3h1.6v1.3zm2.1 7.1V28h-1.6v-1.3h1.6zm-1.6-15.1h1.6v1.3h-1.6v-1.3zm-2 18.5h1.6v1.3h-1.6v-1.3zm2 8v-1.3h1.6v1.3h-1.6zm1.6.4v1.3h-1.6v-1.3h1.6zm-1.6-2.1v-1.3h1.6v1.3h-1.6zm3.6-19.8v1.3h-1.6v-1.3h1.6zm-2 1.3h-1.6v-1.3h1.6v1.3zm.4 5.4h1.6v1.3h-1.6v-1.3zm2.1 15.1h1.6v1.3h-1.6v-1.3zm0-28.8V8.3h1.6v1.3h-1.6zm-2.5 11.7h-1.6V20h1.6v1.3zm.4 8.7h1.6v1.3h-1.6V30z"></path><path d="M39.9 30.1c-.1-1-.4-2-.9-2.9-.2-.3-.3-.4-.7-.4h-.9c-.4 0-.7 0-1.1-.1v-1.6c0-.2-.1-.2-.2-.3l-1.9-.6c-.4-.1-.8-.1-1.1-.2v-.5c0-.6 0-.6.6-.8 1-.4 2-.7 2.9-1.4 1-.8 1.6-1.7 2.1-2.9.4-1 .4-2.1.3-3.2-.1-.8-.2-1.7-.6-2.4-.3-.6-.7-1.1-1.3-1.4-1.2-.7-2.5-.9-3.9-.9-.4 0-.8.1-1.2.1v-.4c-.5.1-1 .1-1.6.2V9c.5-.1 1-.2 1.6-.2V7l-5.7.8v3.5l-3.5.2v-1.4c.5 0 1-.1 1.5-.1V8.1l-6.1.3v3.3h-4.1v1.7h1.6v1.3h-1.6v1.7h2v5.4h1.6v1.3h-1.5v2h1.6v1.3h-1.6v5.4h-2v3.4h1.6v1.3h2.5v3.3l4.1.2v-1.3c.5 0 1 .1 1.6.1v-2.1l2.4.2v3.4l5.7.8v-3.6c.3 0 .6 0 .9.1 1 .1 2.1.1 3.1-.2 1.9-.5 3.2-1.6 3.7-3.6.2-1.3.3-2.5.1-3.7zm-3.5-16.7c.5-.1 1-.1 1.5-.2v1.6c-.5.1-1 .1-1.5.2v-1.6zm0 3.9c.5 0 1-.1 1.5-.1v1.6c-.5 0-1 .1-1.5.1v-1.6zm-16.1-4.2c.5 0 1.1-.1 1.6-.1v1.3c-.5 0-1.1 0-1.6.1v-1.3zm.9 5.2v1.3h-1.6v-1.3h1.6zm-3-5.1h1.6 0v1.3h0-1.6v-1.3zm-.8 4.7h0v-1.3h0H19v1.3h-1.6zm.4 16.8h-1.6 0v-1.3h0 1.6v1.3zm1.6-3.3h0-1.6 0v-1.3h0 1.6 0v1.3zm0-1.7h-1.6 0v-1.3h0 1.6v1.3zm.1-6.4h1.6v1.3h-1.6v-1.3zm2.4 14.8h-1.6v-1.3h1.6v1.3zm1.3-22.6l4.9-.2c3.3-.1 3.2 1.4 3.3 2.4 0 1.9-.8 3.7-4.8 4l-3.4.1v-6.3zM26 34.9h0 0c-.3 0-1.3-.1-1.6-.1v-1.3H26h0v1.4zm4 .3c-.4 0-1.4-.1-1.6-.1v-1.4h0 0c.4 0 .8.1 1.2.1h.4v1.4zm2.2-4.2c-.1.4-.4 1.8-3.6 1.8-.8 0-5.3-.2-5.4-.2h0 0v-6.4l3.4.1c5 .3 5.1 1.3 5.7 3.1.2.5.1 1.1-.1 1.6zm5.8 1.8c-.5-.1-1-.1-1.5-.2v-1.5c.5 0 1 .1 1.5.1v1.6z"></path></svg>