<svg xmlns="http://www.w3.org/2000/svg" xmlns:xlink="http://www.w3.org/1999/xlink" id="Layer_1" x="0px" y="0px" viewBox="0 0 229.3 40" style="enable-background:new 0 0 229.3 40;" xml:space="preserve"><style type="text/css">	.st0{fill:#FFFFFF;}	.st1{clip-path:url(#SVGID_2_);fill:#FFFFFF;}</style><g>	<g>		<g>			<g>				<path id="SVGID_94_" class="st0" d="M207.5,11c0.6,0.7,1.8,0.6,2.2-0.3l1.9-4c0.2-0.5,0.1-1-0.2-1.4L207.6,1     c-0.3-0.3-0.6-0.5-1.1-0.5h-5c-1.2,0-1.8,1.3-1.1,2.2L207.5,11z M59.8,0.3h-5.2h-4.5c-9.2,0-9.7,5.4-9.7,8l0,0v11.6l0,0     c0,2.5,0.6,8,9.7,8h4.5h5.2c9.2,0,9.7-5.4,9.7-8l0,0V8.3l0,0C69.5,5.8,69,0.3,59.8,0.3z M63,19.4c0,1.5-1,2.8-3.5,2.8h-9.2     c-2.5,0-3.5-1.3-3.5-2.8V8.7c0-1.5,1-2.8,3.5-2.8h9.2C62,5.9,63,7.2,63,8.7V19.4z M26.2,0.9L10.8,0.8C1.6,0.8,1.1,6.2,1,8.7l0,0     v0.4L0.9,19.5v0.4l0,0c0,2.5,0.5,7.7,9.7,7.8H26c0.7,0,1.3-0.6,1.3-1.3v-3.3c0-0.7-0.6-1.3-1.3-1.3c0,0-13.9-0.1-14.7-0.1     c-2.5,0-3.5-1-3.5-2.6l0.1-9.5C7.9,8,9,6.8,11.4,6.8c0.5,0,14.7,0.1,14.7,0.1c0.7,0,1.3-0.6,1.3-1.3V2.3     C27.5,1.5,26.9,0.9,26.2,0.9z M228.5,25.5l-7.2-8.7c-0.6-0.7-1.8-0.6-2.2,0.3l-1.9,4c-0.2,0.5-0.1,1,0.2,1.4l4,4.7     c0.3,0.3,0.6,0.5,1.1,0.5h5C228.6,27.7,229.3,26.4,228.5,25.5z M228.3,2.6c0.7-0.9,0.1-2.2-1.1-2.2h-5c-0.4,0-0.8,0.2-1.1,0.5     l-6.1,7l-5.7,6.6l-9.1,11c-0.7,0.9-0.1,2.2,1.1,2.2h5c0.4,0,0.8-0.2,1.1-0.5l6.3-7.3l0,0l5.7-6.6L228.3,2.6z M101.3,0.6H84.6h-1     c-0.7,0-1.3,0.6-1.3,1.3v24.3c0,0.7,0.6,1.3,1.3,1.3h4.3l0,0h13.4c9.2,0,9.7-5.4,9.7-8l0,0v-11l0,0C111,6,110.4,0.6,101.3,0.6z      M104.5,19.1c0,1.5-1,2.8-3.5,2.8H89.1V6.1H101c2.5,0,3.5,1.3,3.5,2.8V19.1z M187.5,0.6h-15.4c-9.2,0-9.7,5.4-9.7,8l0,0v11l0,0     c0,2.5,0.6,8,9.7,8h15.4c0.7,0,1.3-0.6,1.3-1.3v-2.9c0-0.7-0.6-1.3-1.3-1.3h-15.1c-2.5,0-3.5-1.3-3.5-2.8v-2.4h13.7     c0.7,0,1.3-0.6,1.3-1.3v-2.9c0-0.7-0.6-1.3-1.3-1.3h-13.7V9c0-1.5,1-2.8,3.5-2.8h15.1c0.7,0,1.3-0.6,1.3-1.3v-3     C188.8,1.2,188.2,0.6,187.5,0.6z M149.1,0.6h-15.4c-9.2,0-9.7,5.4-9.7,8l0,0v11l0,0c0,2.5,0.6,8,9.7,8h15.4     c0.7,0,1.3-0.6,1.3-1.3v-2.9c0-0.7-0.6-1.3-1.3-1.3H134c-2.5,0-3.5-1.3-3.5-2.8v-2.4h14.9c0.7,0,1.3-0.6,1.3-1.3v-2.9     c0-0.7-0.6-1.3-1.3-1.3h-14.9V9c0-1.5,1-2.8,3.5-2.8h15.1c0.7,0,1.3-0.6,1.3-1.3v-3C150.4,1.2,149.8,0.6,149.1,0.6z"></path>			</g>			<g>				<defs>					<path id="SVGID_1_" d="M207.5,11c0.6,0.7,1.8,0.6,2.2-0.3l1.9-4c0.2-0.5,0.1-1-0.2-1.4L207.6,1c-0.3-0.3-0.6-0.5-1.1-0.5h-5      c-1.2,0-1.8,1.3-1.1,2.2L207.5,11z M59.8,0.3h-5.2h-4.5c-9.2,0-9.7,5.4-9.7,8l0,0v11.6l0,0c0,2.5,0.6,8,9.7,8h4.5h5.2      c9.2,0,9.7-5.4,9.7-8l0,0V8.3l0,0C69.5,5.8,69,0.3,59.8,0.3z M63,19.4c0,1.5-1,2.8-3.5,2.8h-9.2c-2.5,0-3.5-1.3-3.5-2.8V8.7      c0-1.5,1-2.8,3.5-2.8h9.2C62,5.9,63,7.2,63,8.7V19.4z M26.2,0.9L10.8,0.8C1.6,0.8,1.1,6.2,1,8.7l0,0v0.4L0.9,19.5v0.4l0,0      c0,2.5,0.5,7.7,9.7,7.8H26c0.7,0,1.3-0.6,1.3-1.3v-3.3c0-0.7-0.6-1.3-1.3-1.3c0,0-13.9-0.1-14.7-0.1c-2.5,0-3.5-1-3.5-2.6      l0.1-9.5C7.9,8,9,6.8,11.4,6.8c0.5,0,14.7,0.1,14.7,0.1c0.7,0,1.3-0.6,1.3-1.3V2.3C27.5,1.5,26.9,0.9,26.2,0.9z M228.5,25.5      l-7.2-8.7c-0.6-0.7-1.8-0.6-2.2,0.3l-1.9,4c-0.2,0.5-0.1,1,0.2,1.4l4,4.7c0.3,0.3,0.6,0.5,1.1,0.5h5      C228.6,27.7,229.3,26.4,228.5,25.5z M228.3,2.6c0.7-0.9,0.1-2.2-1.1-2.2h-5c-0.4,0-0.8,0.2-1.1,0.5l-6.1,7l-5.7,6.6l-9.1,11      c-0.7,0.9-0.1,2.2,1.1,2.2h5c0.4,0,0.8-0.2,1.1-0.5l6.3-7.3l0,0l5.7-6.6L228.3,2.6z M101.3,0.6H84.6h-1c-0.7,0-1.3,0.6-1.3,1.3      v24.3c0,0.7,0.6,1.3,1.3,1.3h4.3l0,0h13.4c9.2,0,9.7-5.4,9.7-8l0,0v-11l0,0C111,6,110.4,0.6,101.3,0.6z M104.5,19.1      c0,1.5-1,2.8-3.5,2.8H89.1V6.1H101c2.5,0,3.5,1.3,3.5,2.8V19.1z M187.5,0.6h-15.4c-9.2,0-9.7,5.4-9.7,8l0,0v11l0,0      c0,2.5,0.6,8,9.7,8h15.4c0.7,0,1.3-0.6,1.3-1.3v-2.9c0-0.7-0.6-1.3-1.3-1.3h-15.1c-2.5,0-3.5-1.3-3.5-2.8v-2.4h13.7      c0.7,0,1.3-0.6,1.3-1.3v-2.9c0-0.7-0.6-1.3-1.3-1.3h-13.7V9c0-1.5,1-2.8,3.5-2.8h15.1c0.7,0,1.3-0.6,1.3-1.3v-3      C188.8,1.2,188.2,0.6,187.5,0.6z M149.1,0.6h-15.4c-9.2,0-9.7,5.4-9.7,8l0,0v11l0,0c0,2.5,0.6,8,9.7,8h15.4      c0.7,0,1.3-0.6,1.3-1.3v-2.9c0-0.7-0.6-1.3-1.3-1.3H134c-2.5,0-3.5-1.3-3.5-2.8v-2.4h14.9c0.7,0,1.3-0.6,1.3-1.3v-2.9      c0-0.7-0.6-1.3-1.3-1.3h-14.9V9c0-1.5,1-2.8,3.5-2.8h15.1c0.7,0,1.3-0.6,1.3-1.3v-3C150.4,1.2,149.8,0.6,149.1,0.6z"></path>				</defs>				<use xlink:href="#SVGID_1_" style="overflow:visible;fill:#FFFFFF;"></use>				<clipPath id="SVGID_2_">					<use xlink:href="#SVGID_1_" style="overflow:visible;"></use>				</clipPath>				<rect x="-134" y="-106.8" class="st1" width="497.9" height="241.7"></rect>			</g>		</g>	</g>	<g>		<path class="st0" d="M0.5,33.7h1.4v5.9H0.5V33.7z"></path>		<path class="st0" d="M11.8,33.7h1.4l3.6,4.1v-4.1h1.4v5.9h-1.4l-3.6-4.1v4.1h-1.4C11.8,39.6,11.8,33.7,11.8,33.7z"></path>		<path class="st0" d="M30.7,39.6l-2.8-5.9h1.5l2,4.3l2-4.3H35l-2.8,5.9H30.7z"></path>		<path class="st0" d="M49.9,38.4v1.2h-5.3v-5.9h5.2v1.2H46V36h3.2v1.2H46v1.2H49.9z"></path>		<path class="st0" d="M59.6,33.7H61l3.6,4.1v-4.1H66v5.9h-1.4L61,35.5v4.1h-1.4V33.7z"></path>		<path class="st0" d="M82.1,33.7v1.2h-2.6v4.7h-1.4v-4.7h-2.6v-1.2H82.1z"></path>		<path class="st0" d="M91.6,33.7H93v5.9h-1.4V33.7z"></path>		<path class="st0" d="M103,33.7h1.4l3.6,4.1v-4.1h1.4v5.9H108l-3.6-4.1v4.1H103V33.7z"></path>		<path class="st0" d="M125.3,39.5h-0.6l-0.3-0.5c-0.3,0.2-0.5,0.4-0.9,0.5s-0.7,0.2-1.1,0.2s-0.8-0.1-1.1-0.2   c-0.4-0.1-0.7-0.3-1.1-0.6c-0.3-0.3-0.6-0.6-0.8-1c-0.2-0.4-0.3-0.8-0.3-1.4s0.1-1,0.3-1.4c0.2-0.4,0.5-0.7,0.8-1s0.7-0.5,1.1-0.6   s0.8-0.2,1.1-0.2c0.6,0,1.1,0.1,1.6,0.3s0.9,0.5,1.2,0.9l-1,0.9c-0.1-0.1-0.2-0.2-0.3-0.3c-0.1-0.1-0.3-0.2-0.4-0.3   s-0.3-0.1-0.5-0.2c-0.2,0-0.3-0.1-0.5-0.1c-0.3,0-0.6,0.1-0.8,0.2c-0.2,0.1-0.4,0.2-0.6,0.4s-0.3,0.4-0.4,0.6s-0.1,0.4-0.1,0.7   c0,0.2,0,0.4,0.1,0.6s0.2,0.4,0.4,0.6c0.2,0.2,0.4,0.3,0.6,0.4c0.2,0.1,0.5,0.2,0.8,0.2c0.2,0,0.4,0,0.6-0.1s0.3-0.2,0.4-0.3   s0.2-0.2,0.2-0.4c0-0.1,0.1-0.3,0.1-0.4h-1.4v-0.9h2.7v3.4H125.3z"></path>		<path class="st0" d="M134.7,36.6c0-0.1,0-0.2,0.1-0.3c0-0.1,0.1-0.2,0.2-0.2c0.1-0.1,0.1-0.1,0.2-0.1c0.1,0,0.2-0.1,0.3-0.1   c0.2,0,0.4,0.1,0.5,0.2s0.2,0.3,0.2,0.5s-0.1,0.4-0.2,0.5c-0.1,0.1-0.3,0.2-0.5,0.2s-0.4-0.1-0.5-0.2   C134.8,37,134.7,36.8,134.7,36.6z"></path>		<path class="st0" d="M151,33.7v1.2h-3.8v1.5h3.2v1.2h-3.2v2h-1.4v-5.9H151z"></path>		<path class="st0" d="M160.5,33.6h1.4V37c0,0.2,0,0.4,0.1,0.6c0.1,0.2,0.2,0.3,0.4,0.4c0.1,0.1,0.3,0.2,0.5,0.2   c0.2,0.1,0.4,0.1,0.6,0.1s0.4,0,0.6-0.1c0.2-0.1,0.3-0.1,0.5-0.2c0.1-0.1,0.3-0.2,0.4-0.4c0.1-0.2,0.1-0.3,0.1-0.6v-3.5h1.4V37   c0,0.4-0.1,0.8-0.3,1.1s-0.4,0.6-0.7,0.8s-0.6,0.4-0.9,0.5c-0.4,0.1-0.7,0.2-1.1,0.2s-0.7-0.1-1.1-0.2c-0.4-0.1-0.7-0.3-1-0.5   s-0.5-0.5-0.7-0.8s-0.3-0.7-0.3-1.1v-3.4H160.5z"></path>		<path class="st0" d="M182.5,33.7v1.2h-2.6v4.7h-1.4v-4.7h-2.6v-1.2H182.5z"></path>		<path class="st0" d="M191.9,33.6h1.4V37c0,0.2,0,0.4,0.1,0.6c0.1,0.2,0.2,0.3,0.4,0.4c0.1,0.1,0.3,0.2,0.5,0.2   c0.2,0.1,0.4,0.1,0.6,0.1s0.4,0,0.6-0.1c0.2-0.1,0.3-0.1,0.5-0.2c0.1-0.1,0.3-0.2,0.4-0.4c0.1-0.2,0.1-0.3,0.1-0.6v-3.5h1.4V37   c0,0.4-0.1,0.8-0.3,1.1s-0.4,0.6-0.7,0.8s-0.6,0.4-0.9,0.5c-0.4,0.1-0.7,0.2-1.1,0.2s-0.7-0.1-1.1-0.2c-0.4-0.1-0.7-0.3-1-0.5   s-0.5-0.5-0.7-0.8s-0.3-0.7-0.3-1.1v-3.4H191.9z"></path>		<path class="st0" d="M207.7,33.7h3.5c0.3,0,0.6,0.1,0.8,0.2c0.2,0.1,0.4,0.2,0.6,0.4s0.3,0.4,0.4,0.6c0.1,0.2,0.1,0.4,0.1,0.7   c0,0.2,0,0.4-0.1,0.5c0,0.2-0.1,0.3-0.2,0.5s-0.2,0.3-0.4,0.4c-0.1,0.1-0.3,0.2-0.5,0.3l1.8,2.3H212l-1.5-2.2h-1.3v2.2h-1.4v-5.9   H207.7z M209.1,36.2h1.8c0.3,0,0.5-0.1,0.6-0.2s0.2-0.3,0.2-0.4c0-0.2-0.1-0.3-0.2-0.4s-0.3-0.2-0.6-0.2h-1.8V36.2z"></path>		<path class="st0" d="M228.6,38.4v1.2h-5.3v-5.9h5.2v1.2h-3.8V36h3.2v1.2h-3.2v1.2H228.6z"></path>	</g></g></svg>