<svg xmlns="http://www.w3.org/2000/svg" xmlns:xlink="http://www.w3.org/1999/xlink" id="Layer_1" x="0px" y="0px"
     viewBox="0 0 229.3 40" style="enable-background:new 0 0 229.3 40;" xml:space="preserve"><style type="text/css">	.st0{clip-path:url(#SVGID_3_);fill:url(#SVGID_4_);}	.st1{clip-path:url(#SVGID_7_);fill:url(#SVGID_8_);}	.st2{fill:#2D42BA;}	.st3{fill:#00D351;}	.st4{fill:url(#SVGID_9_);}	.st5{fill:url(#SVGID_10_);}	.st6{fill:url(#SVGID_11_);}	.st7{fill:url(#SVGID_12_);}	.st8{fill:url(#SVGID_13_);}	.st9{fill:url(#SVGID_14_);}	.st10{fill:url(#SVGID_15_);}	.st11{fill:url(#SVGID_16_);}	.st12{fill:url(#SVGID_17_);}	.st13{fill:url(#SVGID_18_);}	.st14{fill:url(#SVGID_19_);}	.st15{fill:url(#SVGID_20_);}	.st16{fill:url(#SVGID_21_);}	.st17{fill:url(#SVGID_22_);}	.st18{fill:url(#SVGID_23_);}	.st19{fill:url(#SVGID_24_);}	.st20{clip-path:url(#SVGID_27_);fill:url(#SVGID_28_);}	.st21{fill:url(#SVGID_29_);}	.st22{fill:url(#SVGID_30_);}	.st23{fill:url(#SVGID_31_);}	.st24{fill:url(#SVGID_32_);}	.st25{fill:url(#SVGID_33_);}	.st26{fill:url(#SVGID_34_);}	.st27{fill:url(#SVGID_35_);}	.st28{fill:url(#SVGID_36_);}	.st29{fill:url(#SVGID_37_);}	.st30{fill:url(#SVGID_38_);}	.st31{fill:url(#SVGID_39_);}	.st32{fill:url(#SVGID_40_);}	.st33{fill:url(#SVGID_41_);}	.st34{fill:url(#SVGID_42_);}	.st35{fill:url(#SVGID_43_);}	.st36{fill:url(#SVGID_44_);}	.st37{clip-path:url(#SVGID_46_);fill:#FFFFFF;}	.st38{fill:#FFFFFF;}	.st39{fill:url(#SVGID_47_);}	.st40{clip-path:url(#SVGID_50_);fill:url(#SVGID_51_);}	.st41{fill:url(#SVGID_52_);}	.st42{fill:url(#SVGID_53_);}	.st43{fill:url(#SVGID_54_);}	.st44{fill:url(#SVGID_55_);}	.st45{fill:url(#SVGID_56_);}	.st46{fill:url(#SVGID_57_);}	.st47{fill:url(#SVGID_58_);}	.st48{fill:url(#SVGID_59_);}	.st49{fill:url(#SVGID_60_);}	.st50{fill:url(#SVGID_61_);}	.st51{fill:url(#SVGID_62_);}	.st52{fill:url(#SVGID_63_);}	.st53{fill:url(#SVGID_64_);}	.st54{fill:url(#SVGID_65_);}	.st55{fill:url(#SVGID_66_);}	.st56{fill:url(#SVGID_67_);}	.st57{clip-path:url(#SVGID_70_);fill:url(#SVGID_71_);}	.st58{fill:url(#SVGID_72_);}	.st59{fill:url(#SVGID_73_);}	.st60{fill:url(#SVGID_74_);}	.st61{fill:url(#SVGID_75_);}	.st62{fill:url(#SVGID_76_);}	.st63{fill:url(#SVGID_77_);}	.st64{fill:url(#SVGID_78_);}	.st65{fill:url(#SVGID_79_);}	.st66{fill:url(#SVGID_80_);}	.st67{fill:url(#SVGID_81_);}	.st68{fill:url(#SVGID_82_);}	.st69{fill:url(#SVGID_83_);}	.st70{fill:url(#SVGID_84_);}	.st71{fill:url(#SVGID_85_);}	.st72{fill:url(#SVGID_86_);}	.st73{fill:url(#SVGID_87_);}	.st74{clip-path:url(#SVGID_89_);}	.st75{clip-path:url(#SVGID_91_);}	.st76{clip-path:url(#SVGID_93_);fill:#FFFFFF;}	.st77{clip-path:url(#SVGID_96_);fill:url(#SVGID_97_);}	.st78{fill:url(#SVGID_98_);}	.st79{fill:url(#SVGID_99_);}	.st80{fill:url(#SVGID_100_);}	.st81{fill:url(#SVGID_101_);}	.st82{fill:url(#SVGID_102_);}	.st83{fill:url(#SVGID_103_);}	.st84{fill:url(#SVGID_104_);}	.st85{fill:url(#SVGID_105_);}	.st86{fill:url(#SVGID_106_);}	.st87{fill:url(#SVGID_107_);}	.st88{fill:url(#SVGID_108_);}	.st89{fill:url(#SVGID_109_);}	.st90{fill:url(#SVGID_110_);}	.st91{fill:url(#SVGID_111_);}	.st92{fill:url(#SVGID_112_);}	.st93{fill:url(#SVGID_113_);}	.st94{clip-path:url(#SVGID_115_);fill:#FFFFFF;}	.st95{clip-path:url(#SVGID_117_);fill:#FFFFFF;}	.st96{clip-path:url(#SVGID_120_);fill:url(#SVGID_121_);}	.st97{fill:none;stroke:#00D351;stroke-width:2;stroke-miterlimit:10;}	.st98{fill:none;stroke:#000000;stroke-width:2;stroke-miterlimit:10;}	.st99{clip-path:url(#SVGID_124_);fill:url(#SVGID_125_);}	.st100{fill:url(#SVGID_126_);}	.st101{fill:url(#SVGID_127_);}	.st102{fill:url(#SVGID_128_);}	.st103{fill:url(#SVGID_129_);}	.st104{fill:url(#SVGID_130_);}	.st105{fill:url(#SVGID_131_);}	.st106{fill:url(#SVGID_132_);}	.st107{fill:url(#SVGID_133_);}	.st108{fill:url(#SVGID_134_);}	.st109{fill:url(#SVGID_135_);}	.st110{fill:url(#SVGID_136_);}	.st111{fill:url(#SVGID_137_);}	.st112{fill:url(#SVGID_138_);}	.st113{fill:url(#SVGID_139_);}	.st114{fill:url(#SVGID_140_);}	.st115{fill:url(#SVGID_141_);}	.st116{clip-path:url(#SVGID_144_);fill:url(#SVGID_145_);}	.st117{fill:url(#SVGID_146_);}	.st118{fill:url(#SVGID_147_);}	.st119{fill:url(#SVGID_148_);}	.st120{fill:url(#SVGID_149_);}	.st121{fill:url(#SVGID_150_);}	.st122{fill:url(#SVGID_151_);}	.st123{fill:url(#SVGID_152_);}	.st124{fill:url(#SVGID_153_);}	.st125{fill:url(#SVGID_154_);}	.st126{fill:url(#SVGID_155_);}	.st127{fill:url(#SVGID_156_);}	.st128{fill:url(#SVGID_157_);}	.st129{fill:url(#SVGID_158_);}	.st130{fill:url(#SVGID_159_);}	.st131{fill:url(#SVGID_160_);}	.st132{fill:url(#SVGID_161_);}	.st133{fill:url(#SVGID_162_);}	.st134{fill:url(#SVGID_163_);}	.st135{fill:url(#SVGID_164_);}	.st136{fill:url(#SVGID_165_);}	.st137{fill:url(#SVGID_166_);}	.st138{fill:url(#SVGID_167_);}	.st139{fill:url(#SVGID_168_);}	.st140{fill:url(#SVGID_169_);}	.st141{fill:url(#SVGID_170_);}	.st142{fill:url(#SVGID_171_);}	.st143{fill:url(#SVGID_172_);}	.st144{fill:url(#SVGID_173_);}	.st145{fill:url(#SVGID_174_);}	.st146{fill:url(#SVGID_175_);}	.st147{fill:url(#SVGID_176_);}	.st148{fill:url(#SVGID_177_);}	.st149{clip-path:url(#SVGID_180_);fill:url(#SVGID_181_);}	.st150{fill:url(#SVGID_182_);}	.st151{fill:url(#SVGID_183_);}	.st152{clip-path:url(#SVGID_185_);fill:#FFFFFF;}	.st153{fill:url(#SVGID_186_);}	.st154{fill:url(#SVGID_187_);}	.st155{fill:url(#SVGID_188_);}	.st156{fill:url(#SVGID_189_);}	.st157{fill:url(#SVGID_190_);}	.st158{fill:url(#SVGID_191_);}	.st159{fill:url(#SVGID_192_);}	.st160{fill:url(#SVGID_193_);}	.st161{fill:url(#SVGID_194_);}	.st162{fill:url(#SVGID_195_);}	.st163{fill:url(#SVGID_196_);}	.st164{fill:url(#SVGID_197_);}	.st165{fill:url(#SVGID_198_);}	.st166{fill:url(#SVGID_199_);}	.st167{fill:url(#SVGID_200_);}	.st168{clip-path:url(#SVGID_202_);}</style>
    <g>	<g>		<g>			<defs>				<path id="SVGID_94_"
                                                                 d="M207.5,11c0.6,0.7,1.8,0.6,2.2-0.3l1.9-4c0.2-0.5,0.1-1-0.2-1.4l-3.8-4.3c-0.3-0.3-0.6-0.5-1.1-0.5h-5     c-1.2,0-1.8,1.3-1.1,2.2L207.5,11z M59.8,0.3l-5.2,0l-4.5,0c-9.2,0-9.7,5.4-9.7,8h0v11.6h0c0,2.5,0.6,8,9.7,8l4.5,0l5.2,0     c9.2,0,9.7-5.4,9.7-8h0V8.3h0C69.5,5.8,69,0.3,59.8,0.3z M63,19.4c0,1.5-1,2.8-3.5,2.8h-9.2c-2.5,0-3.5-1.3-3.5-2.8V8.7     c0-1.5,1-2.8,3.5-2.8h9.2C62,5.9,63,7.2,63,8.7V19.4z M26.2,0.9L10.8,0.8C1.6,0.8,1.1,6.2,1,8.7h0l0,0.4L0.9,19.5l0,0.4l0,0     c0,2.5,0.5,7.7,9.7,7.8L26,27.7c0.7,0,1.3-0.6,1.3-1.3l0-3.3c0-0.7-0.6-1.3-1.3-1.3c0,0-13.9-0.1-14.7-0.1c-2.5,0-3.5-1-3.5-2.6     l0.1-9.5C7.9,8,9,6.8,11.4,6.8c0.5,0,14.7,0.1,14.7,0.1c0.7,0,1.3-0.6,1.3-1.3l0-3.3C27.5,1.5,26.9,0.9,26.2,0.9z M228.5,25.5     l-7.2-8.7c-0.6-0.7-1.8-0.6-2.2,0.3l-1.9,4c-0.2,0.5-0.1,1,0.2,1.4l4,4.7c0.3,0.3,0.6,0.5,1.1,0.5h5     C228.6,27.7,229.3,26.4,228.5,25.5z M228.3,2.6c0.7-0.9,0.1-2.2-1.1-2.2h-5c-0.4,0-0.8,0.2-1.1,0.5l-6.1,7l-5.7,6.6l-9.1,11     c-0.7,0.9-0.1,2.2,1.1,2.2h5c0.4,0,0.8-0.2,1.1-0.5l6.3-7.3v0l5.7-6.6L228.3,2.6z M101.3,0.6l-16.7,0h-1c-0.7,0-1.3,0.6-1.3,1.3     v24.3c0,0.7,0.6,1.3,1.3,1.3h4.3c0,0,0,0,0,0l13.4,0c9.2,0,9.7-5.4,9.7-8h0v-11h0C111,6,110.4,0.6,101.3,0.6z M104.5,19.1     c0,1.5-1,2.8-3.5,2.8H89.1V6.1H101c2.5,0,3.5,1.3,3.5,2.8V19.1z M187.5,0.6l-15.4,0c-9.2,0-9.7,5.4-9.7,8h0v11h0     c0,2.5,0.6,8,9.7,8l15.4,0c0.7,0,1.3-0.6,1.3-1.3v-2.9c0-0.7-0.6-1.3-1.3-1.3h-15.1c-2.5,0-3.5-1.3-3.5-2.8v-2.4h13.7     c0.7,0,1.3-0.6,1.3-1.3v-2.9c0-0.7-0.6-1.3-1.3-1.3l-13.7,0V9c0-1.5,1-2.8,3.5-2.8h15.1c0.7,0,1.3-0.6,1.3-1.3V1.9     C188.8,1.2,188.2,0.6,187.5,0.6z M149.1,0.6l-15.4,0c-9.2,0-9.7,5.4-9.7,8h0v11h0c0,2.5,0.6,8,9.7,8l15.4,0     c0.7,0,1.3-0.6,1.3-1.3v-2.9c0-0.7-0.6-1.3-1.3-1.3H134c-2.5,0-3.5-1.3-3.5-2.8v-2.4h14.9c0.7,0,1.3-0.6,1.3-1.3v-2.9     c0-0.7-0.6-1.3-1.3-1.3l-14.9,0V9c0-1.5,1-2.8,3.5-2.8h15.1c0.7,0,1.3-0.6,1.3-1.3V1.9C150.4,1.2,149.8,0.6,149.1,0.6z"></path>			</defs>
        <linearGradient id="SVGID_2_" gradientUnits="userSpaceOnUse" x1="-3.0614" y1="11.2136" x2="211.7356"
                        y2="16.1515">				<stop offset="0.2784" style="stop-color:#5163F8"></stop>
            <stop offset="0.9983" style="stop-color:#00D351"></stop>			</linearGradient>
        <use xlink:href="#SVGID_94_" style="overflow:visible;fill:url(#SVGID_2_);"></use>
        <clipPath id="SVGID_3_">				<use xlink:href="#SVGID_94_" style="overflow:visible;"></use>			</clipPath>
        <linearGradient id="SVGID_4_" gradientUnits="userSpaceOnUse" x1="-3.0646" y1="11.3452" x2="211.7327"
                        y2="16.283">				<stop offset="0.2784" style="stop-color:#5163F8"></stop>
            <stop offset="0.9983" style="stop-color:#00D351"></stop>			</linearGradient>
        <rect x="-134" y="-106.8" class="st0" width="497.9" height="241.7"></rect>		</g>	</g>
        <g>		<linearGradient id="SVGID_6_" gradientUnits="userSpaceOnUse" x1="3.0152" y1="36.6474" x2="192.3678"
                                   y2="40.1768">			<stop offset="0.2784" style="stop-color:#5163F8"></stop>
            <stop offset="0.9983" style="stop-color:#00D351"></stop>		</linearGradient>
            <path style="fill:url(#SVGID_6_);" d="M0.5,33.7h1.4v5.9H0.5V33.7z"></path>
            <linearGradient id="SVGID_7_" gradientUnits="userSpaceOnUse" x1="3.02" y1="36.389" x2="192.3726"
                            y2="39.9184">			<stop offset="0.2784" style="stop-color:#5163F8"></stop>
                <stop offset="0.9983" style="stop-color:#00D351"></stop>		</linearGradient>
            <path style="fill:url(#SVGID_7_);"
                  d="M11.8,33.7h1.4l3.6,4.1v-4.1h1.4v5.9h-1.4l-3.6-4.1v4.1h-1.4V33.7z"></path>
            <linearGradient id="SVGID_8_" gradientUnits="userSpaceOnUse" x1="3.0262" y1="36.0574" x2="192.3787"
                            y2="39.5868">			<stop offset="0.2784" style="stop-color:#5163F8"></stop>
                <stop offset="0.9983" style="stop-color:#00D351"></stop>		</linearGradient>
            <path style="fill:url(#SVGID_8_);" d="M30.7,39.6l-2.8-5.9h1.5l2,4.3l2-4.3H35l-2.8,5.9H30.7z"></path>
            <linearGradient id="SVGID_9_" gradientUnits="userSpaceOnUse" x1="3.0312" y1="35.7899" x2="192.3837"
                            y2="39.3193">			<stop offset="0.2784" style="stop-color:#5163F8"></stop>
                <stop offset="0.9983" style="stop-color:#00D351"></stop>		</linearGradient>
            <path class="st4" d="M49.9,38.4v1.2h-5.3v-5.9h5.2v1.2H46V36h3.2v1.2H46v1.2H49.9z"></path>
            <linearGradient id="SVGID_10_" gradientUnits="userSpaceOnUse" x1="3.0366" y1="35.4993" x2="192.3891"
                            y2="39.0287">			<stop offset="0.2784" style="stop-color:#5163F8"></stop>
                <stop offset="0.9983" style="stop-color:#00D351"></stop>		</linearGradient>
            <path class="st5" d="M59.6,33.7H61l3.6,4.1v-4.1H66v5.9h-1.4L61,35.5v4.1h-1.4V33.7z"></path>
            <linearGradient id="SVGID_11_" gradientUnits="userSpaceOnUse" x1="3.0426" y1="35.1768" x2="192.3952"
                            y2="38.7062">			<stop offset="0.2784" style="stop-color:#5163F8"></stop>
                <stop offset="0.9983" style="stop-color:#00D351"></stop>		</linearGradient>
            <path class="st6" d="M82.1,33.7v1.2h-2.6v4.7h-1.4v-4.7h-2.6v-1.2H82.1z"></path>
            <linearGradient id="SVGID_12_" gradientUnits="userSpaceOnUse" x1="3.0469" y1="34.9486" x2="192.3994"
                            y2="38.478">			<stop offset="0.2784" style="stop-color:#5163F8"></stop>
                <stop offset="0.9983" style="stop-color:#00D351"></stop>		</linearGradient>
            <path class="st7" d="M91.6,33.7h1.4v5.9h-1.4V33.7z"></path>
            <linearGradient id="SVGID_13_" gradientUnits="userSpaceOnUse" x1="3.0517" y1="34.6902" x2="192.4042"
                            y2="38.2196">			<stop offset="0.2784" style="stop-color:#5163F8"></stop>
                <stop offset="0.9983" style="stop-color:#00D351"></stop>		</linearGradient>
            <path class="st8" d="M103,33.7h1.4l3.6,4.1v-4.1h1.4v5.9H108l-3.6-4.1v4.1H103V33.7z"></path>
            <linearGradient id="SVGID_14_" gradientUnits="userSpaceOnUse" x1="3.0573" y1="34.3866" x2="192.4099"
                            y2="37.916">			<stop offset="0.2784" style="stop-color:#5163F8"></stop>
                <stop offset="0.9983" style="stop-color:#00D351"></stop>		</linearGradient>
            <path class="st9"
                  d="M125.3,39.5h-0.6l-0.3-0.5c-0.3,0.2-0.5,0.4-0.9,0.5s-0.7,0.2-1.1,0.2c-0.4,0-0.8-0.1-1.1-0.2   c-0.4-0.1-0.7-0.3-1.1-0.6c-0.3-0.3-0.6-0.6-0.8-1c-0.2-0.4-0.3-0.8-0.3-1.4s0.1-1,0.3-1.4c0.2-0.4,0.5-0.7,0.8-1s0.7-0.5,1.1-0.6   c0.4-0.1,0.8-0.2,1.1-0.2c0.6,0,1.1,0.1,1.6,0.3c0.5,0.2,0.9,0.5,1.2,0.9l-1,0.9c-0.1-0.1-0.2-0.2-0.3-0.3   c-0.1-0.1-0.3-0.2-0.4-0.3c-0.1-0.1-0.3-0.1-0.5-0.2c-0.2,0-0.3-0.1-0.5-0.1c-0.3,0-0.6,0.1-0.8,0.2c-0.2,0.1-0.4,0.2-0.6,0.4   s-0.3,0.4-0.4,0.6s-0.1,0.4-0.1,0.7c0,0.2,0,0.4,0.1,0.6s0.2,0.4,0.4,0.6c0.2,0.2,0.4,0.3,0.6,0.4c0.2,0.1,0.5,0.2,0.8,0.2   c0.2,0,0.4,0,0.6-0.1c0.2-0.1,0.3-0.2,0.4-0.3c0.1-0.1,0.2-0.2,0.2-0.4c0-0.1,0.1-0.3,0.1-0.4h-1.4v-0.9h2.7V39.5z"></path>
            <linearGradient id="SVGID_15_" gradientUnits="userSpaceOnUse" x1="3.0618" y1="34.1461" x2="192.4144"
                            y2="37.6755">			<stop offset="0.2784" style="stop-color:#5163F8"></stop>
                <stop offset="0.9983" style="stop-color:#00D351"></stop>		</linearGradient>
            <path class="st10"
                  d="M134.7,36.6c0-0.1,0-0.2,0.1-0.3c0-0.1,0.1-0.2,0.2-0.2c0.1-0.1,0.1-0.1,0.2-0.1c0.1,0,0.2-0.1,0.3-0.1   c0.2,0,0.4,0.1,0.5,0.2s0.2,0.3,0.2,0.5c0,0.2-0.1,0.4-0.2,0.5c-0.1,0.1-0.3,0.2-0.5,0.2c-0.2,0-0.4-0.1-0.5-0.2   C134.8,37,134.7,36.8,134.7,36.6z"></path>
            <linearGradient id="SVGID_16_" gradientUnits="userSpaceOnUse" x1="3.0663" y1="33.9047" x2="192.4189"
                            y2="37.4341">			<stop offset="0.2784" style="stop-color:#5163F8"></stop>
                <stop offset="0.9983" style="stop-color:#00D351"></stop>		</linearGradient>
            <path class="st11" d="M151,33.7v1.2h-3.8v1.5h3.2v1.2h-3.2v2h-1.4v-5.9H151z"></path>
            <linearGradient id="SVGID_17_" gradientUnits="userSpaceOnUse" x1="3.0721" y1="33.5958" x2="192.4246"
                            y2="37.1252">			<stop offset="0.2784" style="stop-color:#5163F8"></stop>
                <stop offset="0.9983" style="stop-color:#00D351"></stop>		</linearGradient>
            <path class="st12"
                  d="M160.5,33.6h1.4V37c0,0.2,0,0.4,0.1,0.6c0.1,0.2,0.2,0.3,0.4,0.4c0.1,0.1,0.3,0.2,0.5,0.2   c0.2,0.1,0.4,0.1,0.6,0.1s0.4,0,0.6-0.1c0.2-0.1,0.3-0.1,0.5-0.2c0.1-0.1,0.3-0.2,0.4-0.4c0.1-0.2,0.1-0.3,0.1-0.6v-3.5h1.4V37   c0,0.4-0.1,0.8-0.3,1.1c-0.2,0.3-0.4,0.6-0.7,0.8s-0.6,0.4-0.9,0.5c-0.4,0.1-0.7,0.2-1.1,0.2s-0.7-0.1-1.1-0.2   c-0.4-0.1-0.7-0.3-1-0.5c-0.3-0.2-0.5-0.5-0.7-0.8c-0.2-0.3-0.3-0.7-0.3-1.1V33.6z"></path>
            <linearGradient id="SVGID_18_" gradientUnits="userSpaceOnUse" x1="3.0775" y1="33.3067" x2="192.43"
                            y2="36.8361">			<stop offset="0.2784" style="stop-color:#5163F8"></stop>
                <stop offset="0.9983" style="stop-color:#00D351"></stop>		</linearGradient>
            <path class="st13" d="M182.5,33.7v1.2h-2.6v4.7h-1.4v-4.7h-2.6v-1.2H182.5z"></path>
            <linearGradient id="SVGID_19_" gradientUnits="userSpaceOnUse" x1="3.083" y1="33.0108" x2="192.4355"
                            y2="36.5402">			<stop offset="0.2784" style="stop-color:#5163F8"></stop>
                <stop offset="0.9983" style="stop-color:#00D351"></stop>		</linearGradient>
            <path class="st14"
                  d="M191.9,33.6h1.4V37c0,0.2,0,0.4,0.1,0.6c0.1,0.2,0.2,0.3,0.4,0.4c0.1,0.1,0.3,0.2,0.5,0.2   c0.2,0.1,0.4,0.1,0.6,0.1s0.4,0,0.6-0.1c0.2-0.1,0.3-0.1,0.5-0.2c0.1-0.1,0.3-0.2,0.4-0.4c0.1-0.2,0.1-0.3,0.1-0.6v-3.5h1.4V37   c0,0.4-0.1,0.8-0.3,1.1c-0.2,0.3-0.4,0.6-0.7,0.8s-0.6,0.4-0.9,0.5c-0.4,0.1-0.7,0.2-1.1,0.2s-0.7-0.1-1.1-0.2   c-0.4-0.1-0.7-0.3-1-0.5c-0.3-0.2-0.5-0.5-0.7-0.8c-0.2-0.3-0.3-0.7-0.3-1.1V33.6z"></path>
            <linearGradient id="SVGID_20_" gradientUnits="userSpaceOnUse" x1="3.0875" y1="32.7658" x2="192.4401"
                            y2="36.2952">			<stop offset="0.2784" style="stop-color:#5163F8"></stop>
                <stop offset="0.9983" style="stop-color:#00D351"></stop>		</linearGradient>
            <path class="st15"
                  d="M207.7,33.7h3.5c0.3,0,0.6,0.1,0.8,0.2c0.2,0.1,0.4,0.2,0.6,0.4s0.3,0.4,0.4,0.6c0.1,0.2,0.1,0.4,0.1,0.7   c0,0.2,0,0.4-0.1,0.5c0,0.2-0.1,0.3-0.2,0.5s-0.2,0.3-0.4,0.4c-0.1,0.1-0.3,0.2-0.5,0.3l1.8,2.3H212l-1.5-2.2h-1.3v2.2h-1.4V33.7z    M209.1,36.2h1.8c0.3,0,0.5-0.1,0.6-0.2s0.2-0.3,0.2-0.4c0-0.2-0.1-0.3-0.2-0.4s-0.3-0.2-0.6-0.2h-1.8V36.2z"></path>
            <linearGradient id="SVGID_21_" gradientUnits="userSpaceOnUse" x1="3.0933" y1="32.4587" x2="192.4458"
                            y2="35.9881">			<stop offset="0.2784" style="stop-color:#5163F8"></stop>
                <stop offset="0.9983" style="stop-color:#00D351"></stop>		</linearGradient>
            <path class="st16" d="M228.6,38.4v1.2h-5.3v-5.9h5.2v1.2h-3.8V36h3.2v1.2h-3.2v1.2H228.6z"></path>	</g></g>
    <g>	<g>		<g>			<defs>				<path id="SVGID_114_"
                                                                 d="M207.5,65.5c0.6,0.7,1.8,0.6,2.2-0.3l1.9-4c0.2-0.5,0.1-1-0.2-1.4l-3.8-4.3c-0.3-0.3-0.6-0.5-1.1-0.5     h-5c-1.2,0-1.8,1.3-1.1,2.2L207.5,65.5z M59.8,54.8l-5.2,0l-4.5,0c-9.2,0-9.7,5.4-9.7,8h0v11.6h0c0,2.5,0.6,8,9.7,8l4.5,0l5.2,0     c9.2,0,9.7-5.4,9.7-8h0V62.8h0C69.5,60.2,69,54.8,59.8,54.8z M63,73.9c0,1.5-1,2.8-3.5,2.8h-9.2c-2.5,0-3.5-1.3-3.5-2.8V63.2     c0-1.5,1-2.8,3.5-2.8h9.2c2.5,0,3.5,1.3,3.5,2.8V73.9z M26.2,55.4l-15.4-0.1c-9.2-0.1-9.7,5.4-9.8,7.9h0l0,0.4L0.9,73.9l0,0.4     l0,0c0,2.5,0.5,7.7,9.7,7.8L26,82.2c0.7,0,1.3-0.6,1.3-1.3l0-3.3c0-0.7-0.6-1.3-1.3-1.3c0,0-13.9-0.1-14.7-0.1     c-2.5,0-3.5-1-3.5-2.6l0.1-9.5c0-1.5,1.1-2.8,3.5-2.8c0.5,0,14.7,0.1,14.7,0.1c0.7,0,1.3-0.6,1.3-1.3l0-3.3     C27.5,56,26.9,55.4,26.2,55.4z M228.5,80l-7.2-8.7c-0.6-0.7-1.8-0.6-2.2,0.3l-1.9,4c-0.2,0.5-0.1,1,0.2,1.4l4,4.7     c0.3,0.3,0.6,0.5,1.1,0.5h5C228.6,82.2,229.3,80.8,228.5,80z M228.3,57.1c0.7-0.9,0.1-2.2-1.1-2.2h-5c-0.4,0-0.8,0.2-1.1,0.5     l-6.1,7l-5.7,6.6l-9.1,11c-0.7,0.9-0.1,2.2,1.1,2.2h5c0.4,0,0.8-0.2,1.1-0.5l6.3-7.3v0l5.7-6.6L228.3,57.1z M101.3,55.1l-16.7,0     h-1c-0.7,0-1.3,0.6-1.3,1.3v24.3c0,0.7,0.6,1.3,1.3,1.3h4.3c0,0,0,0,0,0l13.4,0c9.2,0,9.7-5.4,9.7-8h0V63h0     C111,60.5,110.4,55.1,101.3,55.1z M104.5,73.6c0,1.5-1,2.8-3.5,2.8H89.1V60.6H101c2.5,0,3.5,1.3,3.5,2.8V73.6z M187.5,55.1     l-15.4,0c-9.2,0-9.7,5.4-9.7,8h0v11h0c0,2.5,0.6,8,9.7,8l15.4,0c0.7,0,1.3-0.6,1.3-1.3v-2.9c0-0.7-0.6-1.3-1.3-1.3h-15.1     c-2.5,0-3.5-1.3-3.5-2.8v-2.4h13.7c0.7,0,1.3-0.6,1.3-1.3v-2.9c0-0.7-0.6-1.3-1.3-1.3l-13.7,0v-2.2c0-1.5,1-2.8,3.5-2.8h15.1     c0.7,0,1.3-0.6,1.3-1.3v-2.9C188.8,55.6,188.2,55.1,187.5,55.1z M149.1,55.1l-15.4,0c-9.2,0-9.7,5.4-9.7,8h0v11h0     c0,2.5,0.6,8,9.7,8l15.4,0c0.7,0,1.3-0.6,1.3-1.3v-2.9c0-0.7-0.6-1.3-1.3-1.3H134c-2.5,0-3.5-1.3-3.5-2.8v-2.4h14.9     c0.7,0,1.3-0.6,1.3-1.3v-2.9c0-0.7-0.6-1.3-1.3-1.3l-14.9,0v-2.2c0-1.5,1-2.8,3.5-2.8h15.1c0.7,0,1.3-0.6,1.3-1.3v-2.9     C150.4,55.6,149.8,55.1,149.1,55.1z"></path>			</defs>
        <use xlink:href="#SVGID_114_" style="overflow:visible;fill:#FFFFFF;"></use>
        <clipPath id="SVGID_22_">				<use xlink:href="#SVGID_114_" style="overflow:visible;"></use>			</clipPath>
        <rect x="-134" y="-52.3" style="clip-path:url(#SVGID_22_);fill:#FFFFFF;" width="497.9" height="241.7"></rect>		</g>	</g></g></svg>