<svg xmlns="http://www.w3.org/2000/svg" xmlns:xlink="http://www.w3.org/1999/xlink" id="Layer_1" x="0px" y="0px" viewBox="0 0 993.3 276" style="enable-background:new 0 0 993.3 276;" xml:space="preserve"><style type="text/css">	.st0{clip-path:url(#SVGID_00000000943670847739730850000001588578291700900481_);}	.st1{clip-path:url(#SVGID_00000014628609708559669310000003274632279669508028_);}	.st2{clip-path:url(#SVGID_00000088833532991018531860000018358391731957529483_);}	.st3{fill:#FFFFFF;}	.st4{fill:#FFFFFF;stroke:#FFFFFF;stroke-width:0.7524;stroke-miterlimit:10;}</style><g>	<g>		<g>			<defs>				<rect id="SVGID_1_" x="-278.4" y="-214.1" width="1550.9" height="697.4"></rect>			</defs>			<clipPath id="SVGID_00000138548678135956208060000007149373749653261725_">				<use xlink:href="#SVGID_1_" style="overflow:visible;"></use>			</clipPath>			<g style="clip-path:url(#SVGID_00000138548678135956208060000007149373749653261725_);">				<g>					<g>						<defs>															<rect id="SVGID_00000134228476658777351110000008223610207337257883_" x="-283.4" y="-219.1" width="1560.9" height="707.4"></rect>						</defs>						<clipPath id="SVGID_00000110462231823052864820000011410659707689402008_">							<use xlink:href="#SVGID_00000134228476658777351110000008223610207337257883_" style="overflow:visible;"></use>						</clipPath>						<g style="clip-path:url(#SVGID_00000110462231823052864820000011410659707689402008_);">							<g>								<defs>																			<rect id="SVGID_00000109002802102634723390000002531531839771935616_" x="-283.4" y="-219.1" width="1560.9" height="707.4"></rect>								</defs>								<clipPath id="SVGID_00000091733249876248939110000012919823598451698817_">									<use xlink:href="#SVGID_00000109002802102634723390000002531531839771935616_" style="overflow:visible;"></use>								</clipPath>								<g style="clip-path:url(#SVGID_00000091733249876248939110000012919823598451698817_);">								</g>							</g>						</g>					</g>				</g>			</g>		</g>	</g></g><g>	<g>		<g>			<path class="st3" d="M695.8,28.5c-15.5-15.5-36.8-25-60.5-25c-22.4,0-42.9,8.7-58.2,22.9c-1.6,1.5-3.1,3-4.6,4.6V14.4    c0-6.3-5-11.4-11.2-11.4s-11.2,5.1-11.2,11.4v67.2c0,0.4-0.1,0.8-0.1,1.3c-0.1,0.9,0,1.7,0.1,2.6v92.1c0,6.3,5,11.4,11.2,11.4    s11.2-5.1,11.2-11.4V82.3c1.7-15.6,9-29.4,19.8-39.5c11.3-10.5,26.4-16.9,43-16.9c17.4,0,33.2,7.1,44.6,18.5    c10.7,10.7,17.6,25.3,18.4,41.5V86v91.3c0,6.4,5,11.5,11.2,11.5s11.2-5.2,11.2-11.5V90.4c0.1-0.4,0.1-0.9,0.1-1.3    C720.9,65.4,711.3,44,695.8,28.5z"></path>			<path class="st3" d="M204.5,3.8c-5.6-2.6-12.2-0.1-14.8,5.5l-58.9,141.8c-0.1,0.3-0.3,0.7-0.4,1c-2.2,4.5-5.5,8.2-9.6,10.9    c-4.2,2.7-9.2,4.2-14.4,4.2c-5.6,0-10.8-1.7-15.2-4.7c-4.4-3-7.8-7.3-9.8-12.5c-0.3-0.7-0.6-1.4-1.1-2.1L22.2,9.7    c-2.6-5.6-9.2-8-14.8-5.5c-5.6,2.6-8,9.2-5.5,14.8l60.5,144c0.5,1.1,1.2,2.1,2,2.9c3.6,6,8.4,11,14.1,14.9    c8,5.5,17.7,8.7,27.8,8.7c9.6,0,18.7-2.8,26.5-7.8c7.7-5,14.1-12.1,18.1-20.9c0.2-0.3,0.3-0.7,0.4-1L210,18.6    C212.6,13,210.1,6.4,204.5,3.8z"></path>			<path class="st3" d="M366.7,0c-26.3,0-50.1,10.7-67.3,27.9s-27.9,41-27.9,67.3c0,26.3,10.7,50.1,27.9,67.3    c17.2,17.2,41,27.9,67.3,27.9s50.1-10.7,67.3-27.9c17.2-17.2,27.9-41,27.9-67.3S451.2,45.1,434,27.9C416.8,10.6,393,0,366.7,0z     M418.2,146.6c-13.2,13.2-31.4,21.3-51.5,21.3s-38.3-8.1-51.5-21.3c-13.2-13.2-21.3-31.4-21.3-51.5s8.1-38.3,21.3-51.5    c13.2-13.2,31.4-21.3,51.5-21.3s38.3,8.1,51.5,21.3c13.2,13.2,21.3,31.4,21.3,51.5C439.5,115.3,431.4,133.5,418.2,146.6z"></path>			<path class="st3" d="M982,96.6c5.9-0.9,10.1-6.3,9.4-12.3c-2.8-24-14.3-45.1-31.2-60.2C943.3,9,921,0,896.9,0    c-26.3,0-50.1,10.7-67.3,27.9c-17.2,17.2-27.9,41-27.9,67.3s10.7,50.1,27.9,67.3c17.2,17.2,41,27.9,67.3,27.9    c17.7,0,34.6-4.9,49.2-13.7c14.6-8.8,26.8-21.6,35-37.3c2.8-5.5,0.7-12.2-4.7-15c-5.5-2.8-12.2-0.7-15,4.7    c-6.3,11.9-15.6,21.7-26.8,28.5c-11.2,6.8-24.1,10.5-37.7,10.5c-20.1,0-38.3-8.1-51.5-21.3c-12.8-12.8-20.8-30.3-21.3-49.7h155.4    C980.3,96.9,981.2,96.8,982,96.6z M845.4,43.7c13.2-13.2,31.4-21.3,51.5-21.3c18.5,0,35.5,6.9,48.5,18.5    c9.9,8.9,17.5,20.5,21.4,33.7H827.2C830.5,62.7,836.9,52.2,845.4,43.7z"></path>		</g>	</g>	<g>		<g>			<path class="st4" d="M4.6,271.2c-2.8-2.7-4.2-6.1-4.2-10s1.4-7.3,4.2-10c2.8-2.7,6.2-4.1,10.1-4.1s7.2,1.1,9.8,3.4l-1,1.5    c-2.4-2-5.3-3.1-8.8-3.1c-3.4,0-6.3,1.2-8.8,3.6c-2.4,2.4-3.7,5.3-3.7,8.7c0,3.4,1.2,6.3,3.6,8.7c2.4,2.4,5.4,3.6,8.8,3.6    s6.4-1,8.8-3.1l1,1.5c-2.6,2.2-5.9,3.4-9.8,3.4C10.8,275.4,7.4,274,4.6,271.2z"></path>			<path class="st4" d="M48.7,271.2c-2.8-2.7-4.2-6.1-4.2-10s1.4-7.2,4.2-10c2.8-2.7,6.2-4.1,10.1-4.1s7.3,1.4,10.1,4.1    c2.8,2.8,4.2,6.1,4.2,10s-1.4,7.2-4.2,10c-2.8,2.8-6.2,4.1-10.1,4.1C54.8,275.4,51.5,274,48.7,271.2z M67.6,270    c2.4-2.4,3.6-5.3,3.6-8.7c0-3.4-1.2-6.3-3.6-8.7c-2.4-2.4-5.3-3.6-8.8-3.6c-3.4,0-6.4,1.2-8.8,3.6s-3.6,5.3-3.6,8.7    c0,3.4,1.2,6.3,3.6,8.7c2.4,2.4,5.3,3.6,8.8,3.6C62.2,273.6,65.1,272.4,67.6,270z"></path>			<path class="st4" d="M119.2,272v-24.4h1.8V275h-1.7l-20-24.4V275h-1.8v-27.3h1.7L119.2,272z"></path>			<path class="st4" d="M170.1,272v-24.4h1.8V275h-1.7l-20-24.4V275h-1.8v-27.3h1.7L170.1,272z"></path>			<path class="st4" d="M212.5,249.3h-11.4v9.7h10.3v1.6h-10.3v12.6h11.4v1.7h-13.2v-27.3h13.2V249.3z"></path>			<path class="st4" d="M238,271.2c-2.8-2.7-4.2-6.1-4.2-10s1.4-7.3,4.2-10s6.2-4.1,10.1-4.1s7.2,1.1,9.8,3.4l-1,1.5    c-2.4-2-5.3-3.1-8.8-3.1c-3.4,0-6.3,1.2-8.8,3.6c-2.4,2.4-3.7,5.3-3.7,8.7c0,3.4,1.2,6.3,3.6,8.7c2.4,2.4,5.4,3.6,8.8,3.6    c3.4,0,6.4-1,8.8-3.1l1,1.5c-2.6,2.2-5.9,3.4-9.8,3.4C244.2,275.4,240.8,274,238,271.2z"></path>			<path class="st4" d="M278,247.6h21.2v1.7h-9.6V275h-1.8v-25.7h-9.7L278,247.6L278,247.6z"></path>			<path class="st4" d="M323,274.9h-1.8v-27.3h1.8V274.9z"></path>			<path class="st4" d="M372.1,272v-24.4h1.8V275h-1.7l-20-24.4V275h-1.8v-27.3h1.7L372.1,272z"></path>			<path class="st4" d="M402.5,271.2c-2.8-2.7-4.2-6-4.2-9.9s1.4-7.2,4.2-10s6.2-4.1,10.2-4.1c3.9,0,7.2,1.1,9.8,3.4l-1,1.5    c-2.4-2-5.3-3.1-8.7-3.1c-3.5,0-6.4,1.2-8.8,3.6c-2.4,2.4-3.6,5.3-3.6,8.7c0,3.4,1.2,6.3,3.6,8.7c2.4,2.4,5.3,3.6,8.8,3.6    s6.3-0.8,8.4-2.4v-8.9h-8.3v-1.6h10.2v11.7c-3,2.1-6.4,3.1-10.2,3C408.7,275.3,405.3,273.9,402.5,271.2z"></path>			<path class="st4" d="M484.3,272.6l6.7-17.2l-3.1-7.7h2l9.6,24.8l9.6-24.8h2L500.6,275h-1.8l-6.8-17l-6.8,17h-1.8l-10.8-27.4h2    L484.3,272.6z"></path>			<path class="st4" d="M546.2,249.3h-11.4v9.7h10.3v1.6h-10.3v12.6h11.4v1.7H533v-27.3h13.2V249.3z"></path>			<path class="st4" d="M581.1,249.4c1.3,1.2,2,2.8,2,4.6c0,2.3-1.1,4.1-3.2,5.4c1.7,0.4,3.1,1.3,4.3,2.7c1.1,1.4,1.7,3,1.7,4.8    c0,2.3-0.8,4.2-2.4,5.7c-1.6,1.5-3.5,2.3-5.8,2.3h-7.8v-27.3h6.5C578.3,247.6,579.8,248.2,581.1,249.4z M579.9,257.6    c0.9-1,1.4-2.1,1.4-3.4c0-1.4-0.5-2.5-1.4-3.5s-2.1-1.4-3.5-1.4h-4.7v9.8h4.7C577.8,259,579,258.6,579.9,257.6z M582.2,271.4    c1.2-1.2,1.9-2.7,1.9-4.5s-0.6-3.2-1.9-4.5s-2.7-1.8-4.5-1.8h-5.9v12.6h5.9C579.4,273.2,580.9,272.6,582.2,271.4z"></path>			<path class="st4" d="M612.2,274.1c-1.4-0.8-2.5-1.9-3.3-3.3l1.5-1.1c0.7,1.1,1.6,2.1,2.7,2.8c1.1,0.7,2.5,1.1,4.1,1.1    c2.1,0,3.9-0.6,5.3-1.7c1.4-1.1,2-2.4,2-4s-0.6-2.9-1.9-4c-1.3-1.1-3.1-1.7-5.5-1.7h-1.9v-1.7h1.9c2.4,0,4.1-0.6,5.2-1.8    c1.1-1.2,1.6-2.5,1.6-3.9c0-1.6-0.6-2.9-1.9-4s-2.8-1.7-4.8-1.7c-1.5,0-2.8,0.4-3.9,1.1c-1.1,0.7-2,1.6-2.7,2.8l-1.5-1.1    c0.8-1.4,1.9-2.5,3.3-3.4c1.4-0.8,3-1.2,4.8-1.2c2.5,0,4.5,0.7,6.1,2.1s2.4,3.2,2.4,5.3c0,1.3-0.4,2.6-1.1,3.8s-2,2.1-3.8,2.8    c1.8,0.4,3.2,1.3,4.1,2.5s1.3,2.6,1.3,4.1c0,2.1-0.9,3.9-2.6,5.3c-1.7,1.4-3.9,2.1-6.5,2.1C615.2,275.3,613.6,274.9,612.2,274.1z    "></path>			<path class="st4" d="M680,273.5c-1.3-1.2-2-2.9-2-4.9c0-1.9,0.9-3.9,2.7-5.9l2.6-3.1c-2.1-1.8-3.1-3.7-3.1-5.6s0.7-3.5,2-4.9    c1.3-1.3,3-2,5-2s3.6,0.7,4.9,2c1.3,1.3,1.9,2.9,1.9,4.8v0.9h-1.8V254c0-1.2-0.5-2.4-1.4-3.4c-0.9-1.1-2.1-1.6-3.5-1.6    s-2.6,0.5-3.7,1.5c-1,1-1.5,2.2-1.5,3.6c0,1.3,0.7,2.6,2,4l9,8.5l4.3-6.1h3.2v1.7h-2.1l-4,5.8l7.5,7.1h-2.5l-6.1-5.7    c-2.8,4.1-5.6,6.1-8.4,6.1C683,275.4,681.3,274.7,680,273.5z M692.1,268l-7.6-7.1l-2.6,3c-1.4,1.7-2.1,3.2-2.1,4.7    c0,1.6,0.6,2.8,1.7,3.7c1.1,0.9,2.3,1.3,3.4,1.3C687.2,273.6,689.6,271.7,692.1,268z"></path>			<path class="st4" d="M764.1,249.4c1.3,1.2,2,2.8,2,4.6c0,2.3-1.1,4.1-3.2,5.4c1.7,0.4,3.1,1.3,4.3,2.7c1.1,1.4,1.7,3,1.7,4.8    c0,2.3-0.8,4.2-2.4,5.7s-3.5,2.3-5.8,2.3h-7.8v-27.3h6.5C761.3,247.6,762.8,248.2,764.1,249.4z M762.9,257.6    c0.9-1,1.4-2.1,1.4-3.4c0-1.4-0.5-2.5-1.4-3.5c-1-1-2.1-1.4-3.5-1.4h-4.7v9.8h4.7C760.8,259,762,258.6,762.9,257.6z M765.2,271.4    c1.2-1.2,1.9-2.7,1.9-4.5s-0.6-3.2-1.9-4.5s-2.7-1.8-4.5-1.8h-5.9v12.6h5.9C762.4,273.2,763.9,272.6,765.2,271.4z"></path>			<path class="st4" d="M806.7,249.3h-11.4v9.7h10.3v1.6h-10.3v12.6h11.4v1.7h-13.2v-27.3h13.2V249.3z"></path>			<path class="st4" d="M828.6,247.6L837,260l8.4-12.4h2.2l-9.7,14.4v13h-1.8v-13l-9.7-14.4H828.6z"></path>			<path class="st4" d="M869.9,271.2c-2.8-2.7-4.2-6.1-4.2-10s1.4-7.2,4.2-10c2.8-2.7,6.2-4.1,10.1-4.1s7.3,1.4,10.1,4.1    c2.8,2.8,4.2,6.1,4.2,10s-1.4,7.2-4.2,10c-2.8,2.8-6.2,4.1-10.1,4.1S872.7,274,869.9,271.2z M888.8,270c2.4-2.4,3.6-5.3,3.6-8.7    c0-3.4-1.2-6.3-3.6-8.7c-2.4-2.4-5.3-3.6-8.8-3.6c-3.4,0-6.4,1.2-8.8,3.6s-3.6,5.3-3.6,8.7c0,3.4,1.2,6.3,3.6,8.7    c2.4,2.4,5.3,3.6,8.8,3.6C883.5,273.6,886.4,272.4,888.8,270z"></path>			<path class="st4" d="M940.4,272v-24.4h1.8V275h-1.7l-20-24.4V275h-1.8v-27.3h1.7L940.4,272z"></path>			<path class="st4" d="M989.2,251.6c2.7,2.6,4.1,5.9,4.1,9.7c0,3.8-1.4,7.1-4.1,9.7s-6,3.9-9.9,3.9h-9.7v-27.3h9.7    C983.2,247.6,986.5,248.9,989.2,251.6z M987.9,269.8c2.4-2.3,3.6-5.1,3.6-8.5c0-3.3-1.2-6.2-3.6-8.5s-5.2-3.5-8.6-3.5h-7.8v23.9    h7.8C982.6,273.2,985.5,272.1,987.9,269.8z"></path>		</g>	</g></g></svg>