<svg xmlns="http://www.w3.org/2000/svg" xmlns:xlink="http://www.w3.org/1999/xlink" id="Layer_1" x="0px" y="0px"
     viewBox="0 0 228.2 205" style="enable-background:new 0 0 228.2 205;" xml:space="preserve"><style type="text/css">	.st0{fill:#FFFFFF;}</style>
    <path class="st0"
          d="M221.1,1.1C215-1.7,207.8,1,205,7l-64,153.9c-0.2,0.4-0.3,0.7-0.4,1.1c-2.4,4.9-6,8.9-10.5,11.8 c-4.6,2.9-10,4.6-15.7,4.6c-6.1,0-11.8-1.8-16.5-5.1c-4.7-3.3-8.5-7.9-10.6-13.6c-0.3-0.8-0.7-1.6-1.1-2.3L23.1,7.3 C20.3,1.2,13.1-1.4,7,1.4c-6.1,2.8-8.7,10-5.9,16.1l65.7,156.3c0.6,1.2,1.3,2.3,2.1,3.2c3.9,6.5,9.2,12,15.3,16.2 c8.7,6,19.2,9.4,30.2,9.4c10.4,0,20.3-3,28.8-8.5c8.4-5.4,15.3-13.2,19.6-22.7c0.2-0.4,0.3-0.7,0.4-1.1l63.9-153.1 C229.9,11.1,227.2,3.9,221.1,1.1z"></path></svg>